<svg width="341" height="264" viewBox="0 0 341 264" xmlns="http://www.w3.org/2000/svg">
<path d="M0.831827 104.186C0.554916 83.8019 15.5539 66.2361 34.3329 64.953L42.2806 64.41C61.0596 63.1269 76.5065 78.6109 76.7825 98.9951L76.9591 112.084L81.9976 109.491C87.0805 105.751 92.944 103.011 99.2524 101.658C102.055 100.907 104.856 100.488 107.605 100.385C128.672 98.2592 145.86 112.778 146.376 133.562L146.461 136.999L272.85 25.739C290.965 9.79304 317.11 9.8169 331.25 25.792C345.389 41.768 342.166 67.6444 324.053 83.5902L133.306 251.505C115.193 267.45 89.0455 267.426 74.9068 251.451C69.7325 245.605 66.8838 238.433 66.2384 230.908C65.6949 228.563 65.3798 226.103 65.3166 223.55L64.8952 206.571L60.6137 208.774C58.1244 210.444 55.4388 211.792 52.6046 212.762C43.6084 216.574 34.3103 216.824 26.3475 214.045C12.3846 210.36 2.08805 197.005 1.86384 180.396L0.831827 104.186Z" fill="#7E41AE" fill-opacity="0.71"/>
<path d="M0.831827 104.239C0.554915 83.8548 15.5539 66.289 34.3329 65.0059L42.2806 64.4629C61.0596 63.1798 76.5065 78.6638 76.7825 99.048L76.9591 112.137L81.9976 109.544C87.0805 105.804 92.944 103.064 99.2524 101.711C102.055 100.96 104.856 100.541 107.605 100.438C128.672 98.3121 145.86 112.831 146.376 133.615L146.461 137.052L272.85 25.792C290.965 9.84595 317.11 9.8698 331.25 25.8449C345.389 41.8209 342.166 67.6974 324.053 83.6431L133.306 251.557C115.193 267.503 89.0456 267.479 74.9068 251.504C69.7325 245.658 66.8838 238.486 66.2384 230.961C65.695 228.616 65.3798 226.156 65.3166 223.603L64.8952 206.624L60.6137 208.827C58.1244 210.497 55.4388 211.845 52.6046 212.815C43.6084 216.627 34.3103 216.877 26.3475 214.098C12.3846 210.413 2.08805 197.058 1.86384 180.449L0.831827 104.239Z" fill="#7E41AE" fill-opacity="0.71"/>
<path d="M39 64C56.6731 64 71 49.6731 71 32C71 14.3269 56.6731 0 39 0C21.3269 0 7 14.3269 7 32C7 49.6731 21.3269 64 39 64Z" fill="#7E41AE" fill-opacity="0.71"/>
<path d="M111 100C128.673 100 143 85.6731 143 68C143 50.3269 128.673 36 111 36C93.3269 36 79 50.3269 79 68C79 85.6731 93.3269 100 111 100Z" fill="#7E41AE" fill-opacity="0.71"/>
</svg>
